<?xml version="1.0" standalone="yes"?>

<svg version="1.1" viewBox="0.0 0.0 388.8923884514436 401.61679790026244" fill="none" stroke="none" stroke-linecap="square" stroke-miterlimit="10" xmlns="http://www.w3.org/2000/svg" xmlns:xlink="http://www.w3.org/1999/xlink"><clipPath id="p.0"><path d="m0 0l388.8924 0l0 401.6168l-388.8924 0l0 -401.6168z" clip-rule="nonzero"></path></clipPath><g clip-path="url(#p.0)"><path fill="#000000" fill-opacity="0.0" d="m0 0l388.8924 0l0 401.6168l-388.8924 0z" fill-rule="nonzero"></path><path fill="#f8981c" d="m0 200.80315l0 0c0 -110.90051 87.174034 -200.80315 194.70866 -200.80315l0 0c51.639954 0 101.16487 21.155985 137.67982 58.81388c36.514954 37.657898 57.02884 88.73296 57.02884 141.98926l0 0c0 110.90053 -87.17404 200.80315 -194.70866 200.80315l0 0c-107.53463 0 -194.70866 -89.90262 -194.70866 -200.80315z" fill-rule="nonzero"></path><path stroke="#ffffff" stroke-width="2.0" stroke-linejoin="round" stroke-linecap="butt" d="m0 200.80315l0 0c0 -110.90051 87.174034 -200.80315 194.70866 -200.80315l0 0c51.639954 0 101.16487 21.155985 137.67982 58.81388c36.514954 37.657898 57.02884 88.73296 57.02884 141.98926l0 0c0 110.90053 -87.17404 200.80315 -194.70866 200.80315l0 0c-107.53463 0 -194.70866 -89.90262 -194.70866 -200.80315z" fill-rule="nonzero"></path><path fill="#000000" fill-opacity="0.0" d="m56.75853 286.0477c6.273205 -47.047424 13.964127 -94.04701 25.472443 -140.0945c6.298622 -25.202293 16.18042 -81.69496 38.20735 -67.92388c15.071396 9.422546 8.490814 34.868584 8.490814 52.643044c0 41.1351 -3.0542526 82.33861 -8.490814 123.11287c-1.9072266 14.304153 -8.490814 28.020676 -8.490814 42.45143c0 4.942444 2.3879929 -9.594574 3.3963242 -14.433075c3.2846832 -15.761597 6.609474 -31.558609 8.490814 -47.54854c5.198082 -44.179688 9.631401 -90.65544 30.566933 -129.90552c5.679077 -10.647194 11.281677 -31.19233 22.923874 -28.018372c21.42044 5.8397446 19.989288 41.482384 19.527557 63.679794c-0.5364227 25.788269 -0.38137817 51.7621 -4.244095 77.26509c-2.1879578 14.445694 -5.8798676 28.71991 -6.7926483 43.301834c-0.3187561 5.092346 -0.48472595 10.194061 -0.84776306 15.283478c-0.22512817 3.1558838 0.5390625 11.575775 -1.6981659 9.338562c-4.221451 -4.2214355 1.0006256 -11.900269 1.6981659 -17.829376c1.7310028 -14.713593 4.501404 -29.34906 5.0944824 -44.152252c1.1375732 -28.393417 6.404114 -56.51622 7.6404266 -84.9055c0.7470398 -17.154419 -4.5010834 -38.80076 7.6404114 -50.94226c14.0448 -14.0448 46.72014 -11.01458 59.435715 4.244095c19.394592 23.273537 15.763489 63.590454 2.545929 90.85039c-6.8582153 14.144379 -27.865509 15.707733 -43.30185 18.67717c-4.7974854 0.9228821 -19.318527 2.5485535 -14.433075 2.5485535c19.315964 0 48.248108 -6.2396393 56.887146 11.036743c8.861725 17.721771 7.9248047 40.928757 0.8477783 59.4357c-15.132477 39.57251 -80.1534 62.207428 -118.868774 45.0c-26.913055 -11.961761 -80.25671 -44.55075 -59.433075 -65.377945c16.088287 -16.09105 48.668518 -18.916412 67.92389 -6.7926483c38.339066 24.139404 66.32019 72.12509 111.22833 78.112854c16.324158 2.1765442 37.969177 -2.1662903 46.69818 -16.131226c12.775024 -20.437927 25.401886 -51.368134 11.8845215 -71.322845c-9.508881 -14.037216 -32.294983 -12.299622 -49.24411 -12.734909c-67.72766 -1.7393494 -131.27797 40.51854 -187.64041 78.11287" fill-rule="evenodd"></path><path stroke="#ffffff" stroke-width="8.0" stroke-linejoin="round" stroke-linecap="butt" d="m56.75853 286.0477c6.273205 -47.047424 13.964127 -94.04701 25.472443 -140.0945c6.298622 -25.202293 16.18042 -81.69496 38.20735 -67.92388c15.071396 9.422546 8.490814 34.868584 8.490814 52.643044c0 41.1351 -3.0542526 82.33861 -8.490814 123.11287c-1.9072266 14.304153 -8.490814 28.020676 -8.490814 42.45143c0 4.942444 2.3879929 -9.594574 3.3963242 -14.433075c3.2846832 -15.761597 6.609474 -31.558609 8.490814 -47.54854c5.198082 -44.179688 9.631401 -90.65544 30.566933 -129.90552c5.679077 -10.647194 11.281677 -31.19233 22.923874 -28.018372c21.42044 5.8397446 19.989288 41.482384 19.527557 63.679794c-0.5364227 25.788269 -0.38137817 51.7621 -4.244095 77.26509c-2.1879578 14.445694 -5.8798676 28.71991 -6.7926483 43.301834c-0.3187561 5.092346 -0.48472595 10.194061 -0.84776306 15.283478c-0.22512817 3.1558838 0.5390625 11.575775 -1.6981659 9.338562c-4.221451 -4.2214355 1.0006256 -11.900269 1.6981659 -17.829376c1.7310028 -14.713593 4.501404 -29.34906 5.0944824 -44.152252c1.1375732 -28.393417 6.404114 -56.51622 7.6404266 -84.9055c0.7470398 -17.154419 -4.5010834 -38.80076 7.6404114 -50.94226c14.0448 -14.0448 46.72014 -11.01458 59.435715 4.244095c19.394592 23.273537 15.763489 63.590454 2.545929 90.85039c-6.8582153 14.144379 -27.865509 15.707733 -43.30185 18.67717c-4.7974854 0.9228821 -19.318527 2.5485535 -14.433075 2.5485535c19.315964 0 48.248108 -6.2396393 56.887146 11.036743c8.861725 17.721771 7.9248047 40.928757 0.8477783 59.4357c-15.132477 39.57251 -80.1534 62.207428 -118.868774 45.0c-26.913055 -11.961761 -80.25671 -44.55075 -59.433075 -65.377945c16.088287 -16.09105 48.668518 -18.916412 67.92389 -6.7926483c38.339066 24.139404 66.32019 72.12509 111.22833 78.112854c16.324158 2.1765442 37.969177 -2.1662903 46.69818 -16.131226c12.775024 -20.437927 25.401886 -51.368134 11.8845215 -71.322845c-9.508881 -14.037216 -32.294983 -12.299622 -49.24411 -12.734909c-67.72766 -1.7393494 -131.27797 40.51854 -187.64041 78.11287" fill-rule="evenodd"></path></g></svg>

